<?xml version="1.0" encoding="utf-8"?>
<svg xmlns="http://www.w3.org/2000/svg" style="margin: auto; background: none; display: block; shape-rendering: auto;" width="288" height="65" preserveAspectRatio="xMidYMid">
<style type="text/css">
  text {
    text-anchor: middle; font-size: 51px; opacity: 0;
  }
</style>
<g style="transform-origin: 144px 32.5px; transform: scale(0.6375);">
<g transform="translate(144,32.5)">
  <g transform="translate(0,0)"><g class="path" style="transform: scale(0.91); transform-origin: -175.36px -6.88862px; animation: 1s linear -0.609231s infinite normal forwards running breath-bbbb9eab-97f9-4094-ab38-8c122ed676f1;"><path d="M5.68 0L8.56-54.56L17.12-54.56L29.44-22.08L29.44-22.08Q30.48-19.28 31.36-16.92L31.36-16.92L31.36-16.92Q32.24-14.56 32.88-12.72L32.88-12.72L32.88-12.72Q33.68-10.64 34.24-8.88L34.24-8.88L34.40-8.88L34.40-8.88Q34.88-10.64 35.60-12.72L35.60-12.72L35.60-12.72Q36.24-14.56 37.04-16.92L37.04-16.92L37.04-16.92Q37.84-19.28 38.96-22.08L38.96-22.08L51.52-54.56L60.08-54.56L62.88 0L56.08 0L54.72-30L54.72-30Q54.56-33.92 54.48-36.64L54.48-36.64L54.48-36.64Q54.40-39.36 54.40-41.12L54.40-41.12L54.40-44.48L54.24-44.48L54.24-44.48Q53.76-43.28 53.04-41.20L53.04-41.20L53.04-41.20Q52.40-39.44 51.40-36.68L51.40-36.68L51.40-36.68Q50.40-33.92 48.96-30L48.96-30L37.68 0L30.88 0L19.52-30L19.52-30Q18-33.84 17.04-36.60L17.04-36.60L17.04-36.60Q16.08-39.36 15.44-41.12L15.44-41.12L15.44-41.12Q14.72-43.20 14.32-44.48L14.32-44.48L14.16-44.48L14.16-44.48Q14.24-43.20 14.32-41.12L14.32-41.12L14.32-41.12Q14.40-37.76 14.08-30L14.08-30L12.48 0L5.68 0" fill="#0099e5" stroke="none" stroke-width="none" transform="translate(-209.63998413085938,20.39138523982121)" style="fill: rgb(0, 153, 229);"></path></g><g class="path" style="transform: scale(0.91); transform-origin: -118.6px 0.391386px; animation: 1s linear -0.558462s infinite normal forwards running breath-bbbb9eab-97f9-4094-ab38-8c122ed676f1;"><path d="M78.40-19.92L78.40-19.92L78.40-19.92Q78.40-12.16 81.88-8.36L81.88-8.36L81.88-8.36Q85.36-4.56 91.28-4.56L91.28-4.56L91.28-4.56Q97.12-4.56 100.40-8.32L100.40-8.32L100.40-8.32Q103.68-12.08 103.68-19.60L103.68-19.60L103.68-19.60Q103.68-27.60 100.20-31.52L100.20-31.52L100.20-31.52Q96.72-35.44 90.72-35.44L90.72-35.44L90.72-35.44Q84.72-35.44 81.56-31.56L81.56-31.56L81.56-31.56Q78.40-27.68 78.40-19.92zM71.60-20L71.60-20L71.60-20Q71.60-26.08 73.52-30.12L73.52-30.12L73.52-30.12Q75.44-34.16 78.40-36.60L78.40-36.60L78.40-36.60Q81.36-39.04 84.76-40.04L84.76-40.04L84.76-40.04Q88.16-41.04 91.20-41.04L91.20-41.04L91.20-41.04Q94.08-41.04 97.48-40.12L97.48-40.12L97.48-40.12Q100.88-39.20 103.76-36.84L103.76-36.84L103.76-36.84Q106.64-34.48 108.56-30.52L108.56-30.52L108.56-30.52Q110.48-26.56 110.48-20.48L110.48-20.48L110.48-20.48Q110.48-14.16 108.52-10L108.52-10L108.52-10Q106.56-5.84 103.60-3.40L103.60-3.40L103.60-3.40Q100.64-0.96 97.20 0.04L97.20 0.04L97.20 0.04Q93.76 1.04 90.80 1.04L90.80 1.04L90.80 1.04Q87.76 1.04 84.40 0.08L84.40 0.08L84.40 0.08Q81.04-0.88 78.20-3.24L78.20-3.24L78.20-3.24Q75.36-5.60 73.48-9.68L73.48-9.68L73.48-9.68Q71.60-13.76 71.60-20" fill="#0099e5" stroke="none" stroke-width="none" transform="translate(-209.63998413085938,20.39138523982121)" style="fill: rgb(255, 76, 76);"></path></g><g class="path" style="transform: scale(0.91); transform-origin: -76.36px 0.271385px; animation: 1s linear -0.507692s infinite normal forwards running breath-bbbb9eab-97f9-4094-ab38-8c122ed676f1;"><path d="M129.28 0L114.48-40.24L121.52-40.24L131.28-11.84L133.04-5.52L133.12-5.52L134.96-11.84L145.36-40.24L152.08-40.24L136.48 0L129.28 0" fill="#0099e5" stroke="none" stroke-width="none" transform="translate(-209.63998413085938,20.39138523982121)" style="fill: rgb(52, 191, 73);"></path></g><g class="path" style="transform: scale(0.91); transform-origin: -47.88px -0.128614px; animation: 1s linear -0.456923s infinite normal forwards running breath-bbbb9eab-97f9-4094-ab38-8c122ed676f1;"><path d="M158.56 0L158.56-40.32L164.96-41.04L164.96 0L158.56 0" fill="#0099e5" stroke="none" stroke-width="none" transform="translate(-209.63998413085938,20.39138523982121)" style="fill: rgb(0, 153, 229);"></path></g><g class="path" style="transform: scale(0.91); transform-origin: -47.68px -31.3686px; animation: 1s linear -0.406154s infinite normal forwards running breath-bbbb9eab-97f9-4094-ab38-8c122ed676f1;"><path d="M157.52-51.76L157.52-51.76L157.52-51.76Q157.52-53.60 158.76-54.84L158.76-54.84L158.76-54.84Q160-56.08 161.84-56.08L161.84-56.08L161.84-56.08Q163.76-56.08 165.08-54.84L165.08-54.84L165.08-54.84Q166.40-53.60 166.40-51.76L166.40-51.76L166.40-51.76Q166.40-49.92 165.08-48.68L165.08-48.68L165.08-48.68Q163.76-47.44 161.84-47.44L161.84-47.44L161.84-47.44Q160-47.44 158.76-48.68L158.76-48.68L158.76-48.68Q157.52-49.92 157.52-51.76" fill="#0099e5" stroke="none" stroke-width="none" transform="translate(-209.63998413085938,20.39138523982121)" style="fill: rgb(255, 76, 76);"></path></g><g class="path" style="transform: scale(0.91); transform-origin: -18.4px 0.391386px; animation: 1s linear -0.355385s infinite normal forwards running breath-bbbb9eab-97f9-4094-ab38-8c122ed676f1;"><path d="M205.04-6.32L206.24-0.96L206.24-0.96Q204.40-0.40 202.44 0L202.44 0L202.44 0Q200.48 0.40 198.12 0.72L198.12 0.72L198.12 0.72Q195.76 1.04 193.20 1.04L193.20 1.04L193.20 1.04Q189.20 1.04 185.76-0.08L185.76-0.08L185.76-0.08Q182.32-1.20 179.76-3.68L179.76-3.68L179.76-3.68Q177.20-6.16 175.72-10.12L175.72-10.12L175.72-10.12Q174.24-14.08 174.24-19.84L174.24-19.84L174.24-19.84Q174.24-25.04 175.68-29L175.68-29L175.68-29Q177.12-32.96 179.64-35.64L179.64-35.64L179.64-35.64Q182.16-38.32 185.56-39.68L185.56-39.68L185.56-39.68Q188.96-41.04 192.96-41.04L192.96-41.04L192.96-41.04Q196.88-41.04 199.76-39.52L199.76-39.52L199.76-39.52Q202.64-38 204.52-35.40L204.52-35.40L204.52-35.40Q206.40-32.80 207.32-29.32L207.32-29.32L207.32-29.32Q208.24-25.84 208.24-22L208.24-22L207.04-18.48L181.20-18.48L181.20-18.48Q181.20-16 181.84-13.52L181.84-13.52L181.84-13.52Q182.48-11.04 184.04-9.04L184.04-9.04L184.04-9.04Q185.60-7.04 188.12-5.80L188.12-5.80L188.12-5.80Q190.64-4.56 194.40-4.56L194.40-4.56L194.40-4.56Q196.80-4.56 198.80-4.84L198.80-4.84L198.80-4.84Q200.80-5.12 202.28-5.48L202.28-5.48L202.28-5.48Q203.76-5.84 205.04-6.32L205.04-6.32zM181.44-23.60L201.60-23.60L201.60-23.60Q201.60-24.16 201.36-26.08L201.36-26.08L201.36-26.08Q201.12-28 200.24-30.08L200.24-30.08L200.24-30.08Q199.36-32.16 197.52-33.80L197.52-33.80L197.52-33.80Q195.68-35.44 192.64-35.44L192.64-35.44L192.64-35.44Q189.28-35.44 187.12-34.04L187.12-34.04L187.12-34.04Q184.96-32.64 183.68-30.72L183.68-30.72L183.68-30.72Q182.40-28.80 181.92-26.80L181.92-26.80L181.92-26.80Q181.44-24.80 181.44-23.60L181.44-23.60" fill="#0099e5" stroke="none" stroke-width="none" transform="translate(-209.63998413085938,20.39138523982121)" style="fill: rgb(52, 191, 73);"></path></g><g class="path" style="transform: scale(0.91); transform-origin: 24.84px -6.88862px; animation: 1s linear -0.304615s infinite normal forwards running breath-bbbb9eab-97f9-4094-ab38-8c122ed676f1;"><path d="M217.76 0L217.76-54.56L251.20-54.56L251.20-48.40L224.48-48.40L224.48-30.96L249.28-30.96L249.28-24.96L224.48-24.96L224.48 0L217.76 0" fill="#0099e5" stroke="none" stroke-width="none" transform="translate(-209.63998413085938,20.39138523982121)" style="fill: rgb(0, 153, 229);"></path></g><g class="path" style="transform: scale(0.91); transform-origin: 53.32px -0.128614px; animation: 1s linear -0.253846s infinite normal forwards running breath-bbbb9eab-97f9-4094-ab38-8c122ed676f1;"><path d="M259.76 0L259.76-40.32L266.16-41.04L266.16 0L259.76 0" fill="#0099e5" stroke="none" stroke-width="none" transform="translate(-209.63998413085938,20.39138523982121)" style="fill: rgb(255, 76, 76);"></path></g><g class="path" style="transform: scale(0.91); transform-origin: 53.52px -31.3686px; animation: 1s linear -0.203077s infinite normal forwards running breath-bbbb9eab-97f9-4094-ab38-8c122ed676f1;"><path d="M258.72-51.76L258.72-51.76L258.72-51.76Q258.72-53.60 259.96-54.84L259.96-54.84L259.96-54.84Q261.20-56.08 263.04-56.08L263.04-56.08L263.04-56.08Q264.96-56.08 266.28-54.84L266.28-54.84L266.28-54.84Q267.60-53.60 267.60-51.76L267.60-51.76L267.60-51.76Q267.60-49.92 266.28-48.68L266.28-48.68L266.28-48.68Q264.96-47.44 263.04-47.44L263.04-47.44L263.04-47.44Q261.20-47.44 259.96-48.68L259.96-48.68L259.96-48.68Q258.72-49.92 258.72-51.76" fill="#0099e5" stroke="none" stroke-width="none" transform="translate(-209.63998413085938,20.39138523982121)" style="fill: rgb(52, 191, 73);"></path></g><g class="path" style="transform: scale(0.91); transform-origin: 84.12px -0.128614px; animation: 1s linear -0.152308s infinite normal forwards running breath-bbbb9eab-97f9-4094-ab38-8c122ed676f1;"><path d="M277.76 0L277.76-32.24L277.76-32.24Q277.84-33.92 277.36-39.52L277.36-39.52L283.28-40.32L284.16-35.20L284.16-35.20Q286.56-36.80 288.92-38L288.92-38L288.92-38Q291.28-39.20 293.76-40.12L293.76-40.12L293.76-40.12Q296.24-41.04 298.56-41.04L298.56-41.04L298.56-41.04Q301.84-41.04 304.04-40.28L304.04-40.28L304.04-40.28Q306.24-39.52 307.60-37.76L307.60-37.76L307.60-37.76Q308.96-36 309.56-33.12L309.56-33.12L309.56-33.12Q310.16-30.24 310.16-25.92L310.16-25.92L310.16 0L303.76 0L303.76-25.20L303.76-25.20Q303.76-27.60 303.68-29.48L303.68-29.48L303.68-29.48Q303.60-31.36 303.00-32.68L303.00-32.68L303.00-32.68Q302.40-34 301.16-34.72L301.16-34.72L301.16-34.72Q299.92-35.44 297.68-35.44L297.68-35.44L297.68-35.44Q295.60-35.44 293.28-34.52L293.28-34.52L293.28-34.52Q290.96-33.60 288.72-32.40L288.72-32.40L288.72-32.40Q286.48-31.20 284.16-29.60L284.16-29.60L284.16 0L277.76 0" fill="#0099e5" stroke="none" stroke-width="none" transform="translate(-209.63998413085938,20.39138523982121)" style="fill: rgb(0, 153, 229);"></path></g><g class="path" style="transform: scale(0.91); transform-origin: 126.72px -9.40861px; animation: 1s linear -0.101538s infinite normal forwards running breath-bbbb9eab-97f9-4094-ab38-8c122ed676f1;"><path d="M346.56-8.80L346.56-34.24L346.56-34.24Q343.68-35.04 342.08-35.24L342.08-35.24L342.08-35.24Q340.48-35.44 338.80-35.44L338.80-35.44L338.80-35.44Q335.44-35.44 333.04-34.24L333.04-34.24L333.04-34.24Q330.64-33.04 329.08-30.92L329.08-30.92L329.08-30.92Q327.52-28.80 326.80-26.04L326.80-26.04L326.80-26.04Q326.08-23.28 326.08-20.16L326.08-20.16L326.08-20.16Q326.08-17.36 326.68-14.56L326.68-14.56L326.68-14.56Q327.28-11.76 328.56-9.52L328.56-9.52L328.56-9.52Q329.84-7.28 331.68-5.92L331.68-5.92L331.68-5.92Q333.52-4.56 336.08-4.56L336.08-4.56L336.08-4.56Q337.84-4.56 339.72-5.20L339.72-5.20L339.72-5.20Q341.60-5.84 343.20-6.68L343.20-6.68L343.20-6.68Q344.80-7.52 346.56-8.80L346.56-8.80zM347.28 0.64L346.64-3.20L346.64-3.20Q344.80-1.92 343.08-1.08L343.08-1.08L343.08-1.08Q341.36-0.24 339.32 0.40L339.32 0.40L339.32 0.40Q337.28 1.04 335.36 1.04L335.36 1.04L335.36 1.04Q327.84 1.04 323.56-4.28L323.56-4.28L323.56-4.28Q319.28-9.60 319.28-19.84L319.28-19.84L319.28-19.84Q319.28-25.92 321.24-30L321.24-30L321.24-30Q323.20-34.08 326.16-36.52L326.16-36.52L326.16-36.52Q329.12-38.96 332.52-40L332.52-40L332.52-40Q335.92-41.04 338.80-41.04L338.80-41.04L338.80-41.04Q340.24-41.04 341.84-40.84L341.84-40.84L341.84-40.84Q343.44-40.64 346.56-39.84L346.56-39.84L346.56-59.92L352.96-60.64L352.96-7.28L352.96-7.28Q352.96-6.16 353.00-4.92L353.00-4.92L353.00-4.92Q353.04-3.68 353.16-2.48L353.16-2.48L353.16-2.48Q353.28-1.28 353.44 0L353.44 0L347.28 0.64" fill="#0099e5" stroke="none" stroke-width="none" transform="translate(-209.63998413085938,20.39138523982121)" style="fill: rgb(255, 76, 76);"></path></g><g class="path" style="transform: scale(0.91); transform-origin: 169.68px 0.391386px; animation: 1s linear -0.0507692s infinite normal forwards running breath-bbbb9eab-97f9-4094-ab38-8c122ed676f1;"><path d="M393.12-6.32L394.32-0.96L394.32-0.96Q392.48-0.40 390.52 0L390.52 0L390.52 0Q388.56 0.40 386.20 0.72L386.20 0.72L386.20 0.72Q383.84 1.04 381.28 1.04L381.28 1.04L381.28 1.04Q377.28 1.04 373.84-0.08L373.84-0.08L373.84-0.08Q370.40-1.20 367.84-3.68L367.84-3.68L367.84-3.68Q365.28-6.16 363.80-10.12L363.80-10.12L363.80-10.12Q362.32-14.08 362.32-19.84L362.32-19.84L362.32-19.84Q362.32-25.04 363.76-29L363.76-29L363.76-29Q365.20-32.96 367.72-35.64L367.72-35.64L367.72-35.64Q370.24-38.32 373.64-39.68L373.64-39.68L373.64-39.68Q377.04-41.04 381.04-41.04L381.04-41.04L381.04-41.04Q384.96-41.04 387.84-39.52L387.84-39.52L387.84-39.52Q390.72-38 392.60-35.40L392.60-35.40L392.60-35.40Q394.48-32.80 395.40-29.32L395.40-29.32L395.40-29.32Q396.32-25.84 396.32-22L396.32-22L395.12-18.48L369.28-18.48L369.28-18.48Q369.28-16 369.92-13.52L369.92-13.52L369.92-13.52Q370.56-11.04 372.12-9.04L372.12-9.04L372.12-9.04Q373.68-7.04 376.20-5.80L376.20-5.80L376.20-5.80Q378.72-4.56 382.48-4.56L382.48-4.56L382.48-4.56Q384.88-4.56 386.88-4.84L386.88-4.84L386.88-4.84Q388.88-5.12 390.36-5.48L390.36-5.48L390.36-5.48Q391.84-5.84 393.12-6.32L393.12-6.32zM369.52-23.60L389.68-23.60L389.68-23.60Q389.68-24.16 389.44-26.08L389.44-26.08L389.44-26.08Q389.20-28 388.32-30.08L388.32-30.08L388.32-30.08Q387.44-32.16 385.60-33.80L385.60-33.80L385.60-33.80Q383.76-35.44 380.72-35.44L380.72-35.44L380.72-35.44Q377.36-35.44 375.20-34.04L375.20-34.04L375.20-34.04Q373.04-32.64 371.76-30.72L371.76-30.72L371.76-30.72Q370.48-28.80 370.00-26.80L370.00-26.80L370.00-26.80Q369.52-24.80 369.52-23.60L369.52-23.60" fill="#0099e5" stroke="none" stroke-width="none" transform="translate(-209.63998413085938,20.39138523982121)" style="fill: rgb(52, 191, 73);"></path></g><g class="path" style="transform: scale(0.91); transform-origin: 205.2px -0.134329px; animation: 1s linear 0s infinite normal forwards running breath-bbbb9eab-97f9-4094-ab38-8c122ed676f1;"><path d="M405.12 0L405.12-33.76L405.12-33.76Q405.12-35.60 404.72-39.52L404.72-39.52L410.64-40.32L411.28-34.48L411.36-34.48L411.36-34.48Q412.80-36.32 414.16-37.68L414.16-37.68L414.16-37.68Q415.52-39.04 417.00-40.04L417.00-40.04L417.00-40.04Q418.48-41.04 419.84-41.04L419.84-41.04L419.84-41.04Q421.68-41.12 424.96-40.64L424.96-40.64L423.52-34.48L423.52-34.48Q420.88-34.96 419.84-34.88L419.84-34.88L419.84-34.88Q418.48-34.88 416.96-33.60L416.96-33.60L416.96-33.60Q415.44-32.32 414.32-30.88L414.32-30.88L414.32-30.88Q412.88-29.12 411.52-26.88L411.52-26.88L411.52 0L405.12 0" fill="#0099e5" stroke="none" stroke-width="none" transform="translate(-209.63998413085938,20.39138523982121)" style="fill: rgb(0, 153, 229);"></path></g></g>
</g>
</g>
<style id="breath-bbbb9eab-97f9-4094-ab38-8c122ed676f1" data-anikit="">@keyframes breath-bbbb9eab-97f9-4094-ab38-8c122ed676f1
{
  0% {
    animation-timing-function: cubic-bezier(0.9647,0.2413,-0.0705,0.7911);
    transform: scale(0.9099999999999999);
  }
  51% {
    animation-timing-function: cubic-bezier(0.9226,0.2631,-0.0308,0.7628);
    transform: scale(1.02994);
  }
  100% {
    transform: scale(0.9099999999999999);
  }
}</style></svg>